<svg id="组_8611" data-name="组 8611" xmlns="http://www.w3.org/2000/svg" width="68.975" height="68.975" viewBox="0 0 68.975 68.975">
  <path id="路径_7289" data-name="路径 7289" d="M29.706-18.049c2.133,0,3.868,2.144,3.868,4.775,0,4.579-1.059,6.28-1.513,6.8l-.033.044-.038.039c-.984,1.215-1.542,1.6-2.284,1.6S28.557-5,27.285-6.473c-.539-.62-1.447-2.311-1.447-6.8,0-2.631,1.736-4.775,3.869-4.775m0-2.951C26.008-21,23-17.558,23-13.274c0,4.175.733,7.131,2.185,8.788,1.334,1.549,2.44,2.646,4.521,2.646s3.367-1.308,4.455-2.646c1.475-1.682,2.251-4.721,2.251-8.788C36.412-17.533,33.4-21,29.706-21Z" transform="translate(21.068 49.74)"/>
  <path id="路径_7290" data-name="路径 7290" d="M0-36V32.975H68.975V-36ZM2.96,30.005V-33.035H66.015V17.609a16.125,16.125,0,0,0-3.889-2.045l-.22-.072V-27.656H7.185v52.3H31.422l-.685,5.37H2.955Zm59.347,0H33.635l.685-5.37.383-2.874h0a5.153,5.153,0,0,1,.235-.6,5.364,5.364,0,0,1,3.195-2.874H38.2l2.093-.742,2.3-.766h.043l2.7-.958.441.436a5.445,5.445,0,0,0,3.88,1.681h.12a5.556,5.556,0,0,0,3.784-1.653L54,15.837l5.068,1.724-.024-3.042-4.378-1.494a2.5,2.5,0,0,0-.79-.129,2.424,2.424,0,0,0-1.791.79l-.565.57a2.715,2.715,0,0,1-1.839.8,2.564,2.564,0,0,1-1.844-.8l-.57-.57a2.553,2.553,0,0,0-1.849-.786,2.7,2.7,0,0,0-.8.124l-2.941,1.015-2.323.776-2.122.747a8.3,8.3,0,0,0-5.37,5.676l-.067.527H10.059V-24.782H59.012V17.532l2.84,1.006h0c1.475.632,3.583,1.863,4.143,3.022V30.01Z" transform="translate(0 36)"/>
  <path id="路径_7291" data-name="路径 7291" d="M7-9.39H24.244V-12H7Z" transform="translate(6.412 57.983)"/>
  <path id="路径_7292" data-name="路径 7292" d="M7-6.255H24.244V-9H7Z" transform="translate(6.412 60.731)"/>
  <path id="路径_7293" data-name="路径 7293" d="M20.412-28A13.412,13.412,0,0,0,7-14.588,13.412,13.412,0,0,0,20.412-1.176,13.412,13.412,0,0,0,33.824-14.583,13.426,13.426,0,0,0,20.412-28Zm1.452,13.746v-10.7a10.48,10.48,0,0,1,8.884,11.863A10.48,10.48,0,0,1,20.412-4.1a9.675,9.675,0,0,1-3.067-.44Zm-8.709-7.891a10.19,10.19,0,0,1,5.806-2.821v7.257Zm5.491,7.882L14.7-5.807a10.5,10.5,0,0,1-3.788-13.2c.135-.3.276-.561.426-.823Z" transform="translate(6.412 43.328)"/>
</svg>
