<svg id="组_8609" data-name="组 8609" xmlns="http://www.w3.org/2000/svg" width="68.975" height="68.975" viewBox="0 0 68.975 68.975">
  <path id="路径_7284" data-name="路径 7284" d="M25.987-27.176,18-18.235h3.934l4.053-4.706,7.868,8.353,8.107-8.353v3.059h2.861V-28H36.6v2.941h3.338l-6.08,6.235Z" transform="translate(16.488 43.328)" fill="#fff"/>
  <path id="路径_7285" data-name="路径 7285" d="M19.811-23C14.776-23,11-18.854,11-13.577c0,4.9,1.133,8.669,3.021,10.554a6.882,6.882,0,0,0,5.79,3.015c2.643,0,4.154-1.508,5.79-3.015,1.888-1.885,2.643-5.654,2.643-10.554C28.244-18.854,24.342-23,19.811-23Zm3.4,18.092c-1.51,1.508-2.266,2.262-3.4,2.262S17.923-3.4,16.287-4.908c-1.51-1.508-2.266-4.523-2.266-8.669,0-3.769,2.643-6.407,5.79-6.407,3.021,0,5.412,2.638,5.412,6.407S24.342-6.416,23.209-4.908Z" transform="translate(10.076 47.908)" fill="#fff"/>
  <path id="路径_7286" data-name="路径 7286" d="M65.981,29.981H51.612l-1.2-9.58a9.94,9.94,0,0,0-6.107-6.466l-8.981-2.874a3.665,3.665,0,0,0-3.233.718l-.359.719a3.1,3.1,0,0,1-2.156,1.078A3.262,3.262,0,0,1,27.063,12.5L26.7,11.78a3.664,3.664,0,0,0-3.233-.718C19.878,12.139,17,13.217,17,13.217l-2.515.719a9.756,9.756,0,0,0-6.107,6.826l-1.2,9.221H2.994V-33.126H26.345V-36H0V32.975H68.975V6.63H65.981Zm-55.922,0,.838-8.5a7.535,7.535,0,0,1,4.67-4.67l8.622-2.874h.359l.718.718a5.948,5.948,0,0,0,4.311,1.8,5.75,5.75,0,0,0,3.952-1.8l.719-.718,8.981,2.874A6.457,6.457,0,0,1,47.54,21.12c.6,4.071.958,6.826,1.2,8.861Z" transform="translate(0 36)" fill="#fff"/>
  <path id="路径_7287" data-name="路径 7287" d="M15-36v22.191h2.926V-33.074H52.187V1.187H26.339V4.236h28.9V-36Z" transform="translate(13.74 36)" fill="#fff"/>
</svg>
